<svg width="284" height="284" viewBox="0 0 284 284" fill="none" xmlns="http://www.w3.org/2000/svg">
<path d="M210.11 201.02L202.8 195.55C241.5 145.8 229.82 99.26 187.83 74.68C152.37 53.91 116.81 71.54 95.16 97.05L90.2 90.59C90.83 89.66 90.25 87.64 90.99 86.79C118.36 55.22 155.14 45.43 190.94 65.87C233.21 90 261.26 143.09 210.11 201.02Z" fill="white" stroke="white" stroke-width="1.27" stroke-miterlimit="10"/>
<path d="M209.56 93.39L172.16 120.46L211.14 92.32C221.4 110.58 227.33 119.14 226.4 131.93L161.6 130.32L226 132.79C225.81 138.12 222.8 155.59 216.28 164.75C215.67 165.61 162.42 143.2 162.42 143.2C162.42 143.2 212.78 168.44 212.22 169.57C208.39 177.34 203.29 185 196.71 190.98L146.62 143.62L95.16 97.04C101.19 88.94 111.24 76.95 123.12 71.21C133.21 68.96 152.96 67.16 166.39 70.27L157.1 125.26L174.59 68.14C184.42 72.53 200.78 81.32 209.54 93.38L209.56 93.39Z" fill="white"/>
<path d="M146.62 143.62L196.71 190.98C203.29 185 208.39 177.34 212.22 169.57C212.78 168.44 162.42 143.2 162.42 143.2C162.42 143.2 215.67 165.61 216.28 164.75C222.8 155.59 225.81 138.12 226 132.79L161.6 130.32L226.4 131.93C227.33 119.14 221.4 110.58 211.14 92.32L172.16 120.46L209.56 93.39L209.54 93.38C200.78 81.32 184.42 72.53 174.59 68.14L157.1 125.26L166.39 70.27C152.96 67.16 133.21 68.96 123.12 71.21M146.62 143.62L156.8 132.05M146.62 143.62L154.16 130.42M146.62 143.62L95.16 97.04C101.19 88.94 111.24 76.95 123.12 71.21M123.12 71.21L150.22 119.97" stroke="white" stroke-width="1.27" stroke-miterlimit="10"/>
<mask id="mask0_22_34" style="mask-type:luminance" maskUnits="userSpaceOnUse" x="26" y="83" width="212" height="195">
<path d="M237.48 213.51L190.57 197.97C190.57 197.97 162.23 157.69 161.08 156.07C159.93 154.45 81.6 83.88 81.6 83.88L42.59 126.32L26.57 209.49L111.32 277.84L172.72 264.64L237.48 213.51Z" fill="white"/>
</mask>
<g mask="url(#mask0_22_34)">
<path d="M253.92 110.58C248.68 125.4 251.75 160.95 247.81 173.72C233.77 219.2 183.08 252.5 143.98 249.27C113.4 246.74 98.71 240.27 77.71 221.9C52.96 200.24 51.01 175.77 51.16 162.45C51.51 130.11 61.4 99.18 92.56 73.84C139.88 35.36 180.47 62.68 212.92 70.54C227.08 73.97 249.9 65.15 257.8 71.46C272.41 83.11 261.38 89.44 253.9 110.6L253.92 110.58Z" fill="white"/>
</g>
<path d="M210.43 198.97L203.95 194.95C245.11 150.31 230.62 95.2 185.9 72.79C148.12 53.86 111.3 70.52 91.19 97.3L85.41 94.45C85.98 93.49 85.23 91.49 85.92 90.59C111.4 57.42 148.17 45.6 186.26 64.19C231.24 86.13 258.39 144.62 210.43 198.98V198.97Z" fill="#FFD798"/>
<path d="M202.14 90.59L172.38 119.86L208.23 91.3C219.53 108.8 221.6 117 221.47 129.81L163.48 131.53L223.37 134.81C223.51 140.45 221.96 151.24 217.54 162.76L162.43 143.21L215.25 168.21C211.63 176.1 206.61 184 199.83 190.54L152.3 142.9L94.18 100.73C99.66 92.25 110.76 81.71 123.04 76.51L151.57 121.98L129.5 72.77C139.37 69.84 151.05 69.18 164.57 71.37L158.73 126.79L172.11 70.61C182.13 74.32 192.26 80.81 202.15 90.58L202.14 90.59Z" fill="#F7AEBF"/>
<path d="M83.48 98.75L144.31 144.31C144.31 144.31 164.4 170.07 165.39 171.79C166.38 173.51 185.53 194.19 185.53 194.19L213.39 208.41C189.33 234.75 173.97 243.55 148.02 242.71C117.42 241.72 90.85 226.77 82.25 220.36C60.61 204.21 55.99 177.74 55.01 164.45C53.5 144.01 58.24 124.15 83.48 98.76V98.75Z" fill="#FFD798"/>
<path d="M210.43 198.97L203.95 194.95C245.11 150.31 230.62 95.2 185.9 72.79C148.12 53.86 111.3 70.52 91.19 97.3L85.41 94.45C85.98 93.49 85.23 91.49 85.92 90.59C111.4 57.42 148.17 45.6 186.26 64.19C231.24 86.13 258.39 144.62 210.43 198.98V198.97Z" fill="#FCB525"/>
<path d="M202.14 90.59L172.38 119.86L208.23 91.3C219.53 108.8 221.6 117 221.47 129.81L163.48 131.53L223.37 134.81C223.51 140.45 221.96 151.24 217.54 162.76L162.43 143.21L215.25 168.21C211.63 176.1 206.61 184 199.83 190.54L152.3 142.9L94.18 100.73C99.66 92.25 110.76 81.71 123.04 76.51L151.57 121.98L129.5 72.77C139.37 69.84 151.05 69.18 164.57 71.37L158.73 126.79L172.11 70.61C182.13 74.32 192.26 80.81 202.15 90.58L202.14 90.59Z" fill="#F1637D"/>
<path d="M83.48 98.75L144.31 144.31C144.31 144.31 164.4 170.07 165.39 171.79C166.38 173.51 185.53 194.19 185.53 194.19L213.39 208.41C189.33 234.75 173.97 243.55 148.02 242.71C117.42 241.72 90.85 226.77 82.25 220.36C60.61 204.21 55.99 177.74 55.01 164.45C53.5 144.01 58.24 124.15 83.48 98.76V98.75Z" fill="#FCB525"/>
<path d="M169.68 208.45C171.823 208.45 173.56 206.713 173.56 204.57C173.56 202.427 171.823 200.69 169.68 200.69C167.537 200.69 165.8 202.427 165.8 204.57C165.8 206.713 167.537 208.45 169.68 208.45Z" fill="white"/>
<path d="M193.78 218.7C195.293 218.7 196.52 217.473 196.52 215.96C196.52 214.447 195.293 213.22 193.78 213.22C192.267 213.22 191.04 214.447 191.04 215.96C191.04 217.473 192.267 218.7 193.78 218.7Z" fill="white"/>
<path d="M152.97 213.99C154.483 213.99 155.71 212.763 155.71 211.25C155.71 209.737 154.483 208.51 152.97 208.51C151.457 208.51 150.23 209.737 150.23 211.25C150.23 212.763 151.457 213.99 152.97 213.99Z" fill="white"/>
<path fill-rule="evenodd" clip-rule="evenodd" d="M181.183 78.5068C182.099 78.3099 182.574 78.0919 182.756 77.9529L184.664 80.4471C183.911 81.0231 182.868 81.3563 181.844 81.5767C180.772 81.8072 179.508 81.9557 178.156 82.0479C175.449 82.2326 172.236 82.2009 169.181 82.0813C166.119 81.9614 163.179 81.7514 161.007 81.5718C159.921 81.482 159.025 81.3995 158.399 81.3395C158.087 81.3095 157.841 81.285 157.674 81.268L157.58 81.2584L86.2922 88.6616L85.9678 85.5384L157.582 78.1014L157.746 78.1188L157.807 78.1252L157.991 78.144C158.153 78.1605 158.393 78.1844 158.699 78.2139C159.313 78.2728 160.195 78.354 161.266 78.4425C163.41 78.6198 166.301 78.8261 169.304 78.9437C172.314 79.0616 175.4 79.0887 177.943 78.9152C179.216 78.8283 180.315 78.6936 181.183 78.5068Z" fill="#005570"/>
<path d="M183.84 79.38C182.96 80.26 181.81 80.66 180.72 81.01C179.62 81.35 178.5 81.59 177.38 81.76C175.14 82.12 172.9 82.28 170.67 82.35C168.44 82.41 166.22 82.35 164 82.23C161.78 82.09 159.59 81.82 157.39 81.37H157.74C154.73 81.39 151.71 81.28 148.72 81.4C145.72 81.53 142.75 81.87 139.79 82.36C136.83 82.85 133.89 83.5 130.94 84.09C127.99 84.67 125.03 85.09 122.06 85.52C119.09 85.94 116.13 86.38 113.15 86.7C110.17 87.02 107.19 87.23 104.19 87.37C98.2 87.65 92.2 87.79 86.13 87.34L86.08 86.9C91.92 85.21 97.83 84.11 103.75 83.16C106.71 82.68 109.68 82.27 112.65 81.97C115.63 81.67 118.62 81.49 121.61 81.29C124.6 81.1 127.59 80.9 130.59 80.87C133.6 80.84 136.61 80.87 139.6 80.74C142.6 80.61 145.58 80.33 148.53 79.84C151.49 79.34 154.42 78.61 157.37 78.02H157.72C159.89 78.02 162.08 78.1 164.25 78.27L170.75 78.8C172.91 78.99 175.07 79.18 177.23 79.31C178.31 79.37 179.38 79.43 180.45 79.42C181.51 79.41 182.59 79.4 183.55 79.03L183.82 79.38H183.84Z" fill="#005570"/>
<path fill-rule="evenodd" clip-rule="evenodd" d="M156.365 194.526C171.038 193.02 188.093 191.462 197.371 191.29L197.429 194.43C188.307 194.598 171.387 196.14 156.685 197.649C149.348 198.402 142.584 199.145 137.655 199.699C135.191 199.976 133.185 200.206 131.795 200.367C131.101 200.447 130.56 200.511 130.193 200.553L129.643 200.618L86.338 206.406L85.922 203.294L129.254 197.502L129.266 197.501L129.45 199.06C129.266 197.501 129.265 197.501 129.266 197.501L129.828 197.435C130.197 197.392 130.738 197.328 131.435 197.248C132.827 197.087 134.836 196.856 137.304 196.579C142.241 196.024 149.015 195.28 156.365 194.526Z" fill="#005570"/>
<path d="M197.4 193.08C192.77 194.09 188.16 194.74 183.53 195.31C178.9 195.82 174.27 196.32 169.58 196.16C167.24 196.12 164.89 196.01 162.55 196.02C160.21 196.02 157.88 196.14 155.56 196.4C150.92 196.84 146.32 197.83 141.72 198.68C139.44 199.1 137.06 199.41 134.85 199.77L127.96 200.99C123.37 201.82 118.76 202.5 114.13 203.05C104.87 204.11 95.58 204.98 86.16 205.07L86.1 204.63C95.15 202.01 104.33 200.17 113.53 198.52C118.13 197.71 122.76 197.04 127.4 196.51L134.36 195.69L135.24 195.59L136.15 195.53L137.9 195.45C139.07 195.38 140.24 195.37 141.41 195.34C146.1 195.3 150.8 195.43 155.45 195.04C157.78 194.88 160.1 194.6 162.41 194.21C164.72 193.81 167.02 193.34 169.33 192.91C173.95 192.03 178.62 191.81 183.31 191.74C188 191.73 192.71 191.83 197.4 192.65V193.09V193.08Z" fill="#005570"/>
<path d="M156.42 93.471C160.733 92.9024 167.412 98.5028 167.876 102.02C168.619 107.66 168.375 114.511 168.259 118.239C167.956 128.743 167.308 142.262 154.103 144.003C146.339 145.027 141.492 141.548 140.311 132.59C138.518 118.987 140.504 106.911 144.641 99.8844C147.235 95.4919 151.576 94.1096 156.42 93.471ZM155.463 100.551C153.804 100.769 151.751 101.58 150.646 103.953C147.904 109.783 146.158 120.612 147.584 131.428C147.987 134.481 148.906 137.87 152.688 137.371C160.054 136.4 160.657 126.127 160.835 119.285C160.925 115.358 161.101 106.963 160.795 104.641C160.585 103.048 157.586 100.271 155.463 100.551Z" fill="#005570"/>
<path d="M131.504 97.5658C132.367 97.452 133.264 97.6037 133.404 98.6654C133.684 100.789 132.009 112.149 132.429 115.334C132.516 115.997 132.546 116.736 132.642 117.466C132.8 118.66 132.45 124.715 132.361 131.207C132.304 133.848 132.705 137.913 132.565 142.995C132.532 144.282 133.241 146.078 129.525 146.568C128.795 146.664 125.071 147.088 124.931 146.026C124.852 145.429 125.199 143.966 125.236 143.218C125.401 139.348 124.884 135.433 124.974 131.506C125.061 127.039 125.355 119.034 125.154 117.508C125.023 116.513 124.958 115.508 124.818 114.447C124.529 112.257 125.683 101.034 126.494 99.5088C127.191 98.1344 129.513 97.8282 131.504 97.5658Z" fill="#005570"/>
<path d="M114.486 122.425C114.007 122.893 113.587 123.286 113.166 123.679C115.272 125.832 117.049 129.58 117.399 132.235C117.898 136.017 117.879 139.462 115.844 142.971C112.545 148.672 109.072 149.467 104.162 150.114C100.18 150.639 95.6732 150.761 94.7092 150.618C93.6789 150.484 92.9914 145.781 92.8165 144.454C92.589 142.729 92.3108 133.449 92.5138 127.819C92.6072 124.431 94.0206 119.79 93.7056 117.401C93.4432 115.41 93.6178 108.029 94.2107 104.845C94.4113 103.806 96.4348 102.256 97.4301 102.125L100.35 101.74C107.118 100.848 116.38 100.437 117.587 109.594C118.243 114.571 117.511 119.258 114.486 122.425ZM101.485 108.814L101.419 108.823C100.883 109.366 100.653 114.797 100.995 117.385C101.091 118.115 101.089 119.128 100.973 120.291C102.242 120.191 103.569 120.016 104.764 119.858C106.091 119.684 107.842 119.655 108.684 118.869C110.54 117.072 110.874 115.002 110.507 112.215C110.061 108.831 108.077 107.608 105.091 108.001C103.764 108.176 102.021 108.271 101.485 108.814ZM109.98 133.82L109.988 133.887C109.665 131.432 107.458 128.009 104.957 126.449C103.307 126.734 101.573 126.895 99.9405 127.313L99.7436 128.891C99.4393 134.265 99.9494 142.231 100.046 142.961C100.186 144.023 102.159 143.628 103.751 143.418C106.406 143.068 108.344 142.407 109.63 139.875C110.318 138.434 110.33 136.475 109.98 133.82Z" fill="#005570"/>
<path d="M185.364 151.775C189.053 151.289 190.677 154.935 191.033 157.639C191.107 158.201 189.03 158.976 188.046 159.105C187.8 159.138 187.578 158.81 187.425 158.187C187.166 157.041 186.518 155.376 185.394 155.524C184.586 155.63 183.441 155.889 182.883 156.534C182.32 157.144 181.223 159.397 181.478 161.329C181.654 162.664 181.071 164.206 181.04 164.782C180.966 166.936 180.907 168.659 181.19 170.802C181.421 172.558 181.95 174.668 183.847 174.418C185.427 174.21 186.07 173.66 186.542 172.633C186.732 172.179 186.821 170.417 187.348 170.347C187.91 170.273 190.059 170.311 190.161 171.084C190.245 171.716 190.177 173.369 189.904 174.013C188.969 176.137 187.59 177.605 183.867 178.096C179.476 178.675 177.936 175.126 177.413 171.157C177.126 168.979 176.974 167.283 177.038 165.059C177.084 164.053 177.793 162.923 177.556 161.131C177.223 158.602 179.048 154.824 180.157 153.748C181.646 152.301 183.713 151.993 185.364 151.775Z" fill="#005570"/>
<path d="M172.873 153.565C173.189 153.523 173.545 153.512 173.582 153.793C173.703 154.707 173.847 156.617 173.716 158.064C173.623 159.256 173.132 162.036 173.109 163.219C173.024 166.911 173.387 170.472 173.376 174.19C173.365 175.728 173.16 176.613 173.073 178.125C172.989 179.387 171.109 179.492 170.407 179.585C169.915 179.65 169.313 179.693 169.239 179.131C169.045 177.656 169.467 175.706 169.483 174.203C169.519 170.41 169.103 166.713 169.214 162.946C169.253 161.618 169.762 159.514 169.802 158.187C169.833 157.611 169.635 155.028 169.879 154.71C170.428 153.995 171.819 153.704 172.873 153.565Z" fill="#005570"/>
<path d="M152.854 156.347C153.521 156.259 154.639 157.148 155.284 158.243C155.608 158.807 156.583 161.323 156.951 162.49C157.513 164.31 157.899 166.153 158.052 166.776C158.399 168.052 159.355 169.606 160.042 171.838C160.424 173.11 160.687 174.291 161.098 174.701C161.322 173.957 161.217 170.719 161.213 168.789C161.226 166.179 161.129 163.547 161.182 160.967C161.193 159.965 161.342 158.659 161.231 157.816C161.166 157.324 160.9 156.93 160.84 156.474C160.752 155.806 163.15 155.026 163.677 154.956C164.415 154.859 164.77 157.278 164.83 157.735C164.95 158.648 164.957 160.327 164.937 161.258C164.9 164.229 165.051 166.461 164.944 169.441C164.888 170.378 164.737 176.008 164.478 178.651C164.4 179.412 164.357 180.168 163.724 180.251C163.022 180.344 161.751 180.19 161.043 180.247C159.915 180.36 157.712 176.934 156.629 173.325C155.874 170.851 154.781 168.529 154.551 167.595C154.393 166.937 153.828 164.009 153.417 163.599C153.176 165.025 153.096 166.858 153.04 168.33C152.936 171.882 153.409 175.465 153.2 179.03C153.154 179.501 152.929 181.317 152.685 181.635C152.35 182.073 151.156 182.23 150.664 182.295C150.383 182.332 149.043 182.473 148.974 181.946C148.942 181.7 149.364 179.75 149.39 179.139C149.585 175.468 149.148 171.881 149.313 168.25C149.385 166.632 149.488 164.975 149.666 163.343C149.769 162.222 149.72 156.975 150.203 156.84C150.856 156.646 152.151 156.44 152.854 156.347Z" fill="#005570"/>
<path d="M145.814 178.11C146.055 179.936 146.31 181.332 146.361 181.718C146.43 182.245 146.186 182.563 145.238 182.688C144.606 182.772 143.002 182.805 142.754 182.551C142.551 182.364 142.261 180.436 142.062 178.926C141.937 177.978 141.197 176.431 141.118 175.834L141.027 175.417C139.948 175.631 138.763 175.859 138.06 175.951C137.533 176.021 136.51 176.12 135.925 176.018C135.803 177.535 135.601 179.527 135.328 180.707C135 182.287 133.803 184.589 133.276 184.658C132.889 184.709 130.343 184.366 130.273 183.839C130.153 182.926 131.973 180.47 132.211 174.685C132.315 172.492 133.096 170.28 133.516 168.045C134.033 165.19 134.983 162.098 135.992 159.178C136.225 158.504 139.878 158.022 140.51 157.939C141.81 157.767 142.271 159.636 142.571 160.562C142.823 161.386 143.137 162.953 143.257 163.866C143.516 165.833 143.654 167.423 143.877 169.109C144.099 170.795 144.66 173.152 144.928 175.189C145.021 175.891 145.684 177.126 145.814 178.11ZM137.904 172.327L137.874 172.367C138.506 172.283 139.475 172.048 140.419 171.888C140.238 171.054 140.101 170.286 140.022 169.689C139.758 167.687 139.928 166.807 139.678 164.91C139.585 164.207 139.304 162.886 139.036 162.207C138.432 163.859 137.699 166.707 137.421 168.388C137.222 169.593 136.827 170.932 136.462 172.231C136.932 172.276 137.518 172.378 137.904 172.327Z" fill="#005570"/>
<path d="M122.69 159.966C125.184 159.638 126.85 160.347 127.766 161.334C128.355 162.007 128.908 163.221 129.195 165.398C129.302 166.206 126.983 166.512 126 166.642C125.719 166.679 125.371 165.938 125.101 164.973C124.919 164.14 124.436 163.453 122.328 163.731C121.029 163.902 120.576 164.533 120.041 165.354C119.562 166.061 119.137 166.903 118.876 167.902C118.174 170.711 117.71 177.491 117.927 179.142C118.038 179.985 118.39 181.296 118.965 181.864C119.536 182.396 120.355 182.645 121.127 182.543C122.884 182.312 124.012 180.841 124.433 179.427C124.845 177.944 124.907 177.328 124.838 176.801C124.787 176.415 122.684 176.728 121.576 176.731C121.185 176.747 120.832 175.149 120.711 174.236C120.591 173.323 120.938 173.241 121.5 173.167C122.307 173.061 125.162 172.756 126.89 172.85C127.466 172.881 128.839 173.808 128.931 174.51C129.042 175.353 128.367 179.445 127.927 180.718C127.142 182.894 125.503 185.647 121.042 186.236C119.989 186.374 118.458 186.147 117.515 185.771C115.514 184.963 114.369 181.969 114.068 179.686C113.864 178.14 114.279 169.902 114.927 167.494C115.471 165.385 116.299 163.811 117.315 162.569C118.427 161.243 119.809 160.346 122.69 159.966Z" fill="#005570"/>
<path d="M110.509 183.8L110.478 183.84C110.9 183.785 111.745 185.317 111.861 186.195C111.921 186.652 109.89 187.777 107.431 188.101C105.885 188.305 104.809 181.228 104.443 180.347C104.17 179.633 103.423 178.302 102.89 177.514L102.197 177.677C102.211 177.783 102.185 177.858 102.194 177.928C102.236 178.244 102.247 178.6 102.298 178.986C102.446 180.11 101.823 188.126 101.027 188.588C100.467 188.948 99.5532 189.068 99.0966 189.129C98.4995 189.207 97.7525 189.234 97.6831 188.707C97.6275 188.286 97.8619 186.54 97.9024 186.034C98.0812 183.866 98.4963 180.238 98.3944 179.465C98.325 178.938 98.2999 178.477 98.2351 177.985C98.0869 176.861 98.4066 164.919 99.0118 164.088C99.46 163.422 100.798 162.995 101.605 162.889C105.083 162.43 110.724 161.58 111.363 166.427C111.984 171.134 110.2 175.765 107.361 176.46L106.708 176.654C106.904 177.057 107.158 177.631 107.541 178.367C108.192 179.782 108.982 184.145 109.228 184.112C109.509 184.075 110.122 183.851 110.509 183.8ZM102.273 169.305L102.268 169.27C102.229 170.597 102.2 172.281 102.163 173.894C103.278 173.675 104.652 173.53 105.713 173.176C107.182 172.66 107.809 169.826 107.526 167.683C107.313 166.067 105.881 166.042 104.581 166.213C104.159 166.269 102.539 166.447 102.437 167.032C102.331 167.582 102.308 168.764 102.273 169.305Z" fill="#005570"/>
<path d="M88.5777 164.606C90.6853 164.328 94.0091 166.499 94.3888 169.379C94.6064 171.03 94.5245 172.578 94.5665 174.252C94.5974 175.57 94.8741 176.856 94.8347 178.183C94.7357 181.77 93.6721 186.985 92.1481 188.436C90.6241 189.888 89.2442 190.535 86.961 190.836C86.399 190.91 85.8277 190.914 85.2869 190.878C81.677 190.603 80.5204 185.895 79.9601 181.645C79.7285 179.889 80.1469 170.864 82.6244 167.428C84.1048 165.375 86.1189 164.93 88.5777 164.606ZM87.9751 168.438C87.0969 168.554 86.167 168.819 85.6181 169.535C84.1497 171.408 83.6758 180.012 83.8054 180.995C83.9351 181.979 84.6683 186.456 85.4449 186.926C85.9127 187.222 86.3435 187.236 86.8704 187.167C87.8539 187.037 89.1239 186.369 89.6543 185.513C90.18 184.622 90.9526 179.91 90.9754 178.728C90.9844 177.44 90.7123 176.189 90.7258 174.937C90.7394 173.684 90.863 172.453 90.7009 171.224C90.4832 169.573 89.907 168.183 87.9751 168.438Z" fill="#005570"/>
</svg>
