<?xml version="1.0" encoding="UTF-8"?>
<svg id="Layer_1" xmlns="http://www.w3.org/2000/svg" xmlns:xlink="http://www.w3.org/1999/xlink" version="1.1" viewBox="0 0 283.5 283.5">
  <!-- Generator: Adobe Illustrator 29.3.1, SVG Export Plug-In . SVG Version: 2.1.0 Build 151)  -->
  <defs>
    <style>
      .st0 {
        fill: none;
      }

      .st1 {
        fill: #005470;
      }

      .st2 {
        fill: #5d899c;
      }

      .st3 {
        fill: #ade1ee;
      }

      .st4 {
        isolation: isolate;
      }

      .st5 {
        clip-path: url(#clippath-1);
      }

      .st6 {
        clip-path: url(#clippath-2);
      }

      .st7 {
        fill: #fff;
      }

      .st8 {
        fill: #c2d500;
      }

      .st9 {
        clip-path: url(#clippath);
      }
    </style>
    <clipPath id="clippath">
      <rect class="st0" x="13.8" y="9.5" width="292.8" height="244.2"/>
    </clipPath>
    <clipPath id="clippath-1">
      <path class="st0" d="M53.3,158.9c0,44.3,26.5,89,79.4,94.3h22c67.5-6.3,80-68.6,80-92.2,0-40.2-29.6-86.9-90.7-86.9s-90.7,44.7-90.7,84.8h0Z"/>
    </clipPath>
    <clipPath id="clippath-2">
      <rect class="st0" x="-6.4" y="9.5" width="286.1" height="244.2"/>
    </clipPath>
  </defs>
  <g>
    <g class="st9">
      <g>
        <path class="st1" d="M232.1,161c0,24.1-13.4,89.7-88.1,90.1-58.8.3-88.1-46.1-88.1-92.1s37-82.4,88.1-82.4,88.1,45.3,88.1,84.4"/>
        <path class="st8" d="M97.2,115l4.9-4.3,6.9-2s-3-3,6.6-2.6,13.1,4.4,13.1,4.4l-9.9,11h-8.9l-5.3,5.9s-1-3.9-4.3-8.2l-3.3-4.3h0Z"/>
        <path class="st2" d="M100,90.6c3.4,0,13,2.5,13,2.5,0,0,5.1-6.9,0-6.9s-13,4.4-13,4.4"/>
      </g>
    </g>
    <g class="st5">
      <g>
        <path class="st8" d="M154.1,104.5s-9.3,10.7-11.8,14.4c-2.9,4.2-9.9,17.1-9.9,17.1,0,0-.5,3.3.2,4.1,1,1.2,6.4,2,6.4,2l15.1-10,6.6,6.6,14.4-4.6s3.9,6.1,3.9,7.6-3.9,4.9-3.9,4.9l-25.4-3.1-3.2,4.3-19.9,2.1-7.7,12.3s1.5,11.3,2.3,11.8c.8.5,10.8,5.8,10.8,5.8,0,0,7.6-1,12.3,1.3s8.9,9.2,8.9,9.2c0,0,0,2.5,1.1,9.4s4.6,13.3,4.6,13.3l8.7,10.7s-.5,2.8,5.1,1.6,8.5-9,8.5-9c0,0,8.9-26.1,9.2-26.6s6.7-16.8,6.9-17.2,1.6-5.1-1.3-6.1c-3-1-3-2.3-3-2.3,0,0,4.6-2.6,6.7-6.9,2.1-4.3,6.6-5.3,9.5-3.4,3,1.8,19.4,16.3,19.4,16.3l9.4-8.9-3.9-55.2-18.6-5.6-7.6,1s-5.6-1.8-10.5,0-13.1,4.9-13.1,4.9l-10.4.8s-2.3-2.5-7.6-2.5h-12.5Z"/>
        <path class="st8" d="M49.9,154.4s7.2-1,9.5,0,4.6,3.3,5.6,4.3c1,1,.7-4.6,2.6-6.6,2-2,8.5-3.6,12.2-5.3,3.6-1.6,12.5-13.1,12.5-13.1,0,0-6.6-4.9-10.5-4.6-3.9.3-7.9,4.9-7.9,4.9l-7.2-4.9s-.3-4.6,4.4-4.9c4.8-.3,12.3-4.6,12.3-4.6l-2.3-2.8s-6.6.8-10,0c-3.4-.8-23.5-9.3-23.5-9.3l2.3,47h0Z"/>
        <path class="st8" d="M77.5,172.9c-3.9.7-9.9,1-11.2,3.9-1.3,3-.7,6.9-1.6,10.5-1,3.6,7.9,12.1,7.9,15.1s.7,21,.7,21l4.3,16.1s4.6-8.2,7.6-11.5,7.6-12.5,12.2-15.8c4.6-3.3,4.6-12.8,4.6-12.8,0,0,5.9-.3,4.3-6.9-1.6-6.6-13.8-13.4-13.8-13.4l-10.2-3.1-4.6-3.3h0Z"/>
        <path class="st2" d="M97.2,73.3s19.1,13.8,24.5,15.8,26.6,7.4,34,6.4c7.4-1,22.8.1,22.8.1,0,0-4.6-9.1,2.3-11.5,6.9-2.4,38.4,0,38.4,0l-71-19.2-51.1,8.4h0Z"/>
        <path class="st2" d="M118.9,207.8c-8.1,4.9-12.5,9.4-12.5,9.4v22.3l22.4,16.1s39.3,7.4,40.7,6.4c1.5-1,8.7-6.9,9-8.9.3-2-6.8-6-6.8-6,0,0-7.6-6.2-11.1-12.2-3.5-6-13.3-9.5-13.3-9.5l-18.6-6.9-9.8-10.8h0Z"/>
        <path class="st2" d="M236,176c-4.9,2.3-11.3,7.7-11.3,7.7l-5.4,11.3-3.9,19.2,3.9,7.9,22.4-43.7-5.6-2.5h0Z"/>
      </g>
    </g>
    <g class="st6">
      <g>
        <path class="st3" d="M190.4,134.9h67.5s5.2-3.2,1.4-8.5c-5.4-7.4-13.9.7-13.9.7,0,0,2.2-13.3-10.7-14.7-13.1-1.4-14.7,7.8-14.7,7.8,0,0-8.1-7.7-13-2.7-4.9,4.9-1.2,10.7-1.2,10.7,0,0-5.4-.8-10.4,0-4.9.8-4.9,6.8-4.9,6.8"/>
        <path class="st3" d="M-1.7,167.3h93.9s7.5-6.7,1.9-11.9c-3.3-3.1-7.5-3-10.4,0,0-8.5-9.2-6.9-9.2-6.9,0,0,2-15.1-16-17-18.1-1.9-19.1,15.4-19.1,15.4,0,0-11.3-10.6-18.1-3.8-6.9,6.9-1.7,14.8-1.7,14.8,0,0-8.2-7.3-11.3,3.4-3.7-3.5-9.9-3.7-10.7.1-.8,3.3.8,5.9.8,5.9"/>
        <path class="st2" d="M159,18.5c-7.4,2.8-19.2,11.8-19.2,11.8,0,0-8.4-2.2-14.6-1.5-6.2.7-23.3,12.8-23.3,12.8,0,0,4.2,8.2,10.9,9,8.9,1.1,13.1-1.3,16.8-6.7,9.9-14.2,5.4-1,5.4-1,0,0,4,34.9,4.7,35,.6,0,23.5,0,23.5,0,0,0-23.4-2.4-25.8-26.8-1.3-12.7,5.1-17.9,5.1-17.9,0,0,8,8.8,22,11.9,10.9,2.4,20-2.2,22.6-5.4,3.2-4,8.6-10.7-4.7-24.4-5.7-5.9-23.2,3.3-23.2,3.3"/>
        <path class="st7" d="M138.4,30.3c.9,2.7-4.1,7.4-5.9,9.7-3.4,4.5-2.5,10.9-4.3,18.8-2.4,10.2,6.9,22.9,16.5,22.9s2.4-2.7,2.7-3.4c.6-1.8-1.6-3-3.4-6.4-2.6-4.9-5-9.8-5.8-18.7-.4-4.7,10.4-14.4,7.2-17.2-1.6-1.4-3.3-2.7-4.7-4.8-.9-1.5-2.6-2.1-2.2-.9"/>
        <path class="st7" d="M137.4,29.2c1.2.6,3.2,2.7,1.9,3.1-13.4,5.1-22.4,19.4-33.3,14.7-11.7-5-7.3-19.6,8.2-21.6,10.8-1.4,18.9,1.4,23.2,3.7"/>
        <path class="st7" d="M137.8,28.6c-1.2,1.1-.4,3.1,1.2,3.2,19.6,1.5,34.3,14.1,46.9,3.9,13.4-10.9.6-30-20.2-25.5-14.8,3.2-23.3,13.9-27.9,18.4"/>
        <path class="st8" d="M137.2,30.4c-12.4,1.7-20.2,11.6-28.8,6.4-8.5-5.1-3.6-15.6,8.7-14.8,12.2.9,20.1,8.3,20.1,8.3"/>
        <path class="st8" d="M140.3,30.1c17.6-.9,31.1,10.8,41.6,1.5,10.5-9.3.9-22.6-15.9-18.2-16.8,4.4-25.7,16.8-25.7,16.8"/>
        <path class="st1" d="M139.2,29.7s.8,7.1-1.8,13c-3.1,7.3-6,10.5-6,19,0,12.5,11.9,19.3,11.9,19.3,0,0-6.9-7-6.9-19.1s3.9-16.7,4.4-21.5c.5-5.9-1.7-10.7-1.7-10.7"/>
      </g>
    </g>
  </g>
  <g>
    <g class="st4">
      <g class="st4">
        <path class="st7" d="M135.3,165.9c1.6.5,2.4,1.3,2.4,2.4s-.4,1.5-1.1,2.5c-1.9,2.8-3.9,5-5.9,6.7-2,1.7-4.2,2.5-6.8,2.5s-3.9-.4-5.8-1.2c-1.9-.8-3.6-1.9-4.9-3.3-2-1.9-3.3-4.1-4.1-6.6-.7-2.4-1.1-5.3-1.1-8.7s0-3.7.2-6.6v-6.6c0-5.4.3-10.3.8-14.5.5-4.3,1.9-8.1,4-11.6,2.2-3.5,5.5-5.4,9.9-5.7h.6c2.1,0,4.4.6,6.6,1.9,2.3,1.3,4.1,2.9,5.6,4.9,1.4,2,2.2,4.1,2.2,6.3l-1.5.6c-1.2.5-2.3.9-3.1,1.2-.8.3-1.7.4-2.5.4s-1.1,0-1.4,0c-.2-.3-.5-1-1-2.2-.6-1.3-1.2-2.3-1.7-3-.6-.6-1.4-1-2.5-1s-1.4.3-2.2.9c-1.6,1.3-2.6,2.9-3.1,4.9-.5,2-.9,4.4-1,7.3-.2,6.4-.3,13.7-.3,21.7s.4,5.5,1.2,7.9c.8,2.4,2.3,3.6,4.5,3.6s1.5-.2,2-.7c.5-.5,1-1.1,1.5-2.1.5-1,1.1-1.8,1.6-2.3.6-.5,1.4-.8,2.4-.8,1.5,0,3.1.2,4.7.7Z"/>
        <path class="st7" d="M177.5,150.5c-.1,6.8-.2,11.8-.2,15.2s-.2,4-.6,5.6c-.4,1.6-1.1,3-2.3,4h0l-.4.2-2.4,1.9c-1.3,1-2.5,1.7-3.4,2.1-.9.4-2.5.6-4.8.6s-2.5-.1-3.9-.4c-1.3-.3-2.4-.7-3.1-1.3-.4-.3-.8-.5-1.3-.8h0c-.6-.3-1.2-.6-1.6-1h.2c-1.4-1-2.6-2.7-3.5-5.2h0c0,0-.2-.6-.2-.6-1.9-4.9-2.9-14-2.9-27.1v-6c0-5.1.5-8.9,1.5-11.4,1.3-3.3,3.4-5.8,6-7.6,2.7-1.8,5.8-2.7,9.3-2.7s3.3.5,5,1.5c1.7,1,3.2,2.3,4.5,3.7h0c1.6,1.4,2.7,3.4,3.2,5.8.5,2.4.8,5.2.8,8.2v15.2ZM164.4,170.6c1.5,0,2.4-.4,2.7-1.1.4-1.1.9-4.2,1.4-9.1.5-5,.8-8.4.8-10.3v-4.5c-.2-1.9-.2-3.4-.2-4.4v-2.9c.1-.6.2-1.5.2-2.8,0-6-1.8-9-5.5-9s-2.8.5-3.9,1.4c-.2.6-.4,1.1-.6,1.4h0c-.9,2.5-1.4,5.2-1.7,8.1-.3,2.9-.4,6.2-.4,10s0,4.1.2,6.2c.1,2,.2,3.5.2,4.5,0,2.6.3,4.9.7,6.9.4,2,1.2,3.6,2.5,4.7h0c.9.6,2.1,1,3.7,1Z"/>
      </g>
    </g>
    <g class="st4">
      <g class="st4">
        <path class="st7" d="M174.8,144.2c.6-1.7,1.4-3.3,2.3-4.6.9-1.4,2-3,3.4-4.8,1.5-2,2.6-3.6,3.3-4.8.7-1.2,1-2.4,1-3.6s-.1-1.5-.4-2.3c-.3-.8-.7-1.5-1.2-2.1-.5-.6-1.1-.8-1.9-.8s-1.2.3-1.6.9c-.4.6-.7,1.3-.9,1.9,0,.3-.1.6-.1.9,0,.7-.2,1.2-.4,1.5-.2.3-.6.5-1.2.6-.3,0-.8,0-1.4,0s-1.4,0-1.8-.2c-.4-.1-.6-.3-.8-.7-.2-.3-.2-.9-.2-1.7,0-1.6.4-3.1,1.1-4.4.8-1.3,1.8-2.3,3.1-3.1,1.3-.7,2.8-1.1,4.4-1.1s3.2.4,4.6,1.3c1.4.8,2.4,2,3.2,3.4.8,1.4,1.2,3,1.2,4.7,0,4.3-2.1,8.9-6.2,13.8h0c-.9,1-1.6,1.9-2.1,2.7-.6.7-1.1,1.5-1.5,2.4h0c-.4.8-.8,1.4-1,1.8-.2.4-.3.9-.3,1.4.7.2,1.6.2,2.7.2s1.1,0,1.5,0c.4,0,.8,0,1.1,0,.9,0,1.8-.1,2.6-.1s1.9,0,2.6.2c.5.5.7,1.3.7,2.5s0,.5,0,.8c0,.3,0,.6,0,1,0,.4-.7.7-2,.9-1.3.2-2.7.4-4.2.5s-2.6.2-3.2.2c-1.5,0-3.1,0-4.6-.3-1.6-.2-2.4-.6-2.5-1.3-.1-.6-.2-1.4-.2-2.3,0-1.9.3-3.8,1-5.5Z"/>
      </g>
    </g>
    <g class="st4">
      <g class="st4">
        <path class="st7" d="M105.6,197.5c-.1,1.4-.2,3.1-.3,5v1c0,.2,0,.6-.1,1.1,0,.8,0,1.3,0,1.7,0,.5,0,1,.1,1.5-.1.4-.4.7-.9.8s-1.1.1-1.8.1-1.2-.3-1.5-1c.2-.3.3-1.3.3-3,0-1.7,0-3.2,0-4.6,0-2.2,0-4.9.2-8.1.1-3.6.2-6.3.2-8.1s.1-1.1.3-1.3c.2-.2.5-.4.8-.5s.7-.1,1.2-.1h1c.2.3.5.8.8,1.6.3.8.6,1.9,1,3.3.5,1.9.9,3.2,1.2,3.8l.7,1.8c.4.9.6,1.6.8,2.1h0c.1.3.4.9.7,1.7,0-.5,0-.9,0-1.2v-1.2c0-1.1,0-2.7.2-4.9,0-.3,0-1,.1-2,0-1,.1-2,.1-2.8s0-.4,0-.7c0-.3,0-.5,0-.7,0-.5.1-.9.3-1.3.3,0,.7.1,1.2.1.9,0,1.7.2,2.2.3s.8.5.8,1.1,0,1-.1,1.5c0,.4,0,.8,0,1.1-.2,4-.3,7-.4,9.1,0,.9,0,2.2-.1,4,0,1.2,0,2-.1,2.5,0,.8,0,1.9-.1,3.4v1.7c0,.5,0,1,0,1.4,0,.4-.3.8-.7.9s-.8.3-1.4.3c-.8,0-1.4-.2-1.7-.5-.1-.2-.8-2-2-5.6-1.2-3.6-1.9-5.7-2.1-6.3l-.5-1.9c0,.6,0,1.6-.2,2.9Z"/>
        <path class="st7" d="M129.2,204.8c.2.3.3.6.3.9,0,.3,0,.7,0,1.2s0,1.2.1,1.8c-1.2.1-2.6.2-4.2.2s-2,0-3.6,0c-1.6,0-2.4-.1-2.6-.2-.5-1-.7-3-.7-5.9s0-3.7,0-6.7c0-2.3-.1-4.5-.1-6.7v-7c.3-.3.6-.5,1-.6.3,0,.8-.1,1.3-.1,1,0,1.9,0,2.9-.1,1.3,0,2.3,0,2.9,0,1,0,1.8.2,2.4.5,0,.2,0,.4,0,.7,0,.8.1,1.3.2,1.6,0,.2,0,.4,0,.5,0,.4-.1.7-.4.8-.3.1-.7.2-1.2.2-1.8,0-3.6,0-5.3.2,0,.9,0,2.2-.2,3.9-.1,1.7-.2,3-.2,3.9s0,.5,0,.6h.9c1.2-.3,2.2-.3,3-.3s.6,0,.8,0c.2,0,.4,0,.6,0,0,.3.2.8.4,1.6.2.8.3,1.3.3,1.5s0,.5-.3.6c-.2.1-.7.2-1.4.3s-1.7,0-2.9.1c-.7,0-1.1,0-1.3,0v.4c0,.4,0,.7,0,1,0,.3,0,.5,0,.7,0,.1,0,.3,0,.5,0,.2,0,.5,0,.8s0,.6,0,1.2c0,.6,0,1.2.2,1.7,1.1.2,2.6.2,4.4.2h1.1c.5,0,.9.1,1.2.3Z"/>
        <path class="st7" d="M146.5,184.5c0,.4,0,.6,0,.8.3,3.5.5,7.3.5,11.4s-.2,4.7-.7,6.6-1.4,3.4-2.9,4.3h0c-1.2.7-2.6,1.1-4.3,1.1s-1.5-.3-2.4-.8c-.9-.6-1.6-1.3-2.1-2.1-.5-.8-.8-1.6-.7-2.4-.4-2.4-.7-5.1-.7-7.9s0-3,.2-4.8c0-2.1.1-3.7.1-4.8v-1.6c0-.1,0-.3,0-.5,0-.2,0-.4,0-.5,0-.5.2-.9.5-1.2.3,0,.7-.1,1.3-.1s1.3.1,2.1.4c0,.6,0,1.1,0,1.4,0,.7,0,1.9-.2,3.4,0,.9-.2,1.8-.2,2.7,0,1.4,0,2.5,0,3.3,0,1.5,0,3.5.3,6,.2,2.4.4,4,.7,4.6.2.4.5.7.9.9.4.2.8.3,1.3.3,1,0,1.8-.4,2.2-1.1.5-.8.7-1.7.7-2.8,0-2.4,0-5.9-.3-10.6,0-.7,0-1.7-.1-3.1,0-1,0-1.8-.1-2.4,0-.2,0-.5-.1-.8,0-.3,0-.5,0-.7,0-.4,0-.7.2-.9.3-.2.5-.3.7-.4.2,0,.5-.1.8-.1.6,0,1.3.1,2.1.4.1.4.2,1.2.3,2.2Z"/>
        <path class="st7" d="M152.8,184.8c-.2,0-.3,0-.5,0-.5,0-1-.2-1.4-.6,0,0,0-.2,0-.4s0-.4,0-.5c0-.2,0-.4,0-.5,0-.3,0-.6.2-.9,0-.3.3-.5.6-.6h0c.3-.1.6-.2.9-.2.4,0,.9,0,1.3.1.6,0,1,0,1.3,0h2c.4,0,1.1,0,2,0s.6,0,1.1-.1c.1,0,.3,0,.4,0s.4,0,.6,0,.5.1.6.4c.1.3.2.6.2,1,0,.8,0,1.3-.2,1.6-.1.3-.3.5-.5.6s-.6.2-1.2.2h-1.2c0,1.4-.1,2.9-.2,4.5,0,1.6,0,2.7,0,3.4,0,.9,0,2.2,0,3.9,0,.4,0,.9,0,1.6,0,1.1,0,1.9,0,2.4v1.2c0,.3,0,.7,0,1.2s0,.9,0,1.6v.8s0,1,0,1c0,.5,0,1.2,0,2.1-.4,0-.8.1-1.3.1s-.8,0-1.2-.1c-.6,0-1,0-1.2,0,0-.5-.1-.9-.1-1.4s0-1.1.1-1.7c0-.7,0-1.3,0-1.6v-1.6c0-2.1.2-3.9.2-5.5v-1.8c0-.2,0-.5,0-.8,0-1.1,0-2.2,0-3.4,0-.4,0-.9,0-1.4,0-.6,0-1.3,0-2s0-1.7.1-2.5h-1.4c-.2,0-.3,0-.5,0Z"/>
        <path class="st7" d="M168.5,208.3c-.2,0-.3,0-.5-.1h.2c0,.1-.2.1-.2.1-.6,0-1,0-1.4-.2-.3-.1-.6-.4-.7-.8h0c0-.3-.1-1-.1-2.2v-3.2c0-3.7,0-7.9.2-12.6.1-4.7.3-7.2.7-7.5.2-.2.7-.3,1.5-.4.8,0,1.4-.1,2-.1,1.1,0,2.2.1,3.4.4,1.2.2,2,.6,2.6,1.2.6.7,1.1,2,1.4,4,.3,2,.5,3.8.5,5.4s-.1,2.3-.4,3.2c-.2.9-.7,1.7-1.4,2.3,0,.1.2.3.4.7.2.3.4.6.5.9.4,1,.7,3.7.7,8.2v.6c-.4.3-1.1.5-1.9.5s-1.8-.1-2.2-.4c-.1-.5-.2-1.1-.2-1.9s0-.8,0-1.5v-1.5c0-1.7-.1-3-.4-3.8-.3-.3-.9-.4-1.7-.4s-1.2,0-1.7.2c0,1.4,0,3.1-.2,5.1s-.4,3.2-.7,3.6c-.2,0-.3,0-.4,0ZM169.8,185.2v3c0,1.3-.1,2.3-.1,3v2.1c0,.7,0,1.4.1,2.1h1.4c.9,0,1.7-.1,2.3-.4.6-.3,1-.8,1-1.6h0s0-1.1,0-1.1c0-2.2,0-3.9-.3-5.2-.2-1.4-1.3-2.1-3.5-2.1s-.7,0-.9,0Z"/>
        <path class="st7" d="M194.7,204c.3,1.4.5,2.5.5,3.2s-.2,1-.6,1.5h-1c-.9,0-1.5-.1-1.9-.4-.3-1.1-.6-2.2-.8-3.5-.3-1.3-.4-2.3-.5-3-.8,0-1.4,0-1.8,0-.6,0-1.1,0-1.4,0-.1.3-.3,1.1-.6,2.4-.3,1.3-.5,2.2-.5,2.5,0,.4-.1.8-.2,1.1-.1.3-.3.6-.6.8-.2,0-.5,0-.9,0-.9,0-1.6,0-2.1-.3,0-.2,0-.5,0-.9,0-1.2.3-2.6.8-4.2h0c.2-.7.4-1.4.6-2.1l1.8-9.1c.8-4.3,1.5-7.3,2.1-9.1.1-.3.3-.6.5-.7.2-.1.5-.2.8-.2s.4,0,.6,0c.2,0,.4,0,.6,0s.4,0,.6,0c.2.4.4,1,.6,2s.5,2.8.9,5.5c.6,3.9,1.2,7.3,1.7,10.4h0c.3,1.2.6,2.5.9,4ZM188.7,198.2h.9c-.1-2-.3-3.6-.4-4.6,0-.6-.1-1.1-.2-1.3,0,0,0,0,0-.1,0,0,0,0,0,0l-1.2,6c.2,0,.5,0,1,0Z"/>
        <path class="st7" d="M209.8,207.3v.2c0,.4-.2.6-.4.8-.3.1-.6.2-1,.2s-.6,0-1.2,0c-.4,0-1.3,0-2.6,0h-2.6c-.4,0-.8,0-1-.2-.2-.2-.4-.4-.5-.9h0c-.4-1.1-.6-6-.6-14.5v-3.2c0-.3,0-.7,0-1,0-.4,0-.6.1-.8.1-.7.2-1.3.2-1.8s0-.6,0-.7v-.8c0-.5,0-1,.2-1.3.2-.3.5-.5,1-.5.9,0,1.7.2,2.2.7.2.5.2,1,.2,1.6s0,.8,0,1.4c0,.5-.1,1-.1,1.4s0,1.2,0,2v2c0,.9,0,1.6,0,2h0c0,2.5,0,4.3,0,5.6s0,1.2,0,2.2c0,1,0,1.7,0,2.2s0,.6,0,.8c.5.2,1.4.3,2.5.3.1,0,.5,0,1.2,0,.7,0,1.3.1,1.8.3.2.6.3,1.2.3,1.8Z"/>
      </g>
    </g>
  </g>
</svg>