<svg xmlns="http://www.w3.org/2000/svg" xmlns:xlink="http://www.w3.org/1999/xlink" width="445.983" height="310.416" viewBox="0 0 445.983 310.416">
  <defs>
    <clipPath id="clip-path">
      <rect id="Rectangle_5741" data-name="Rectangle 5741" width="411.703" height="221.301" fill="#fff"/>
    </clipPath>
  </defs>
  <g id="Group_50580" data-name="Group 50580" transform="translate(-827.082 -6205)">
    <path id="Path_65401" data-name="Path 65401" d="M931.377,0c6.513.142,10.728,4.8,12.374,9.439.725,2.04.013,4.556.184,6.838.125,1.668,1.295,3.546.811,4.91-.865,2.437-2.118,5.623-4.122,6.576a31.932,31.932,0,0,1-12.2,2.974c-7.467.284-15.526-7.213-14.81-13.557.684-6.062,3.961-12.234,10.735-14.813,2.309-.879,4.686-1.582,7.031-2.366m.572,21.308a37.593,37.593,0,0,0,3.895-1.111c.446-.171,1.05-1.115.919-1.421a56.5,56.5,0,0,0-3.492-7.229,31.889,31.889,0,0,0-3.754-4.29c-1.829,2.533-4.327,4.836-5.3,7.664-1.015,2.94,3.375,6.385,7.735,6.388" transform="translate(328.202 6205)" fill="#fff"/>
    <path id="Path_65402" data-name="Path 65402" d="M870.472,207.595c-6.228.141-10.5-2.943-13.121-7.733-.6-1.089,2.108-4.632,3.976-6.262a29.485,29.485,0,0,1,8.8-5.416,14.6,14.6,0,0,1,8.429-.611A19.221,19.221,0,0,1,887,192.44c3.242,3.348,2.022,6.535-2.274,8.667-2.334,1.158-4.341,2.993-6.7,4.074a61.734,61.734,0,0,1-7.553,2.414m3.481-9.507,3.427-2.561c-1.1-.349-2.255-1.1-3.276-.942-1.152.175-2.181,1.161-3.263,1.794l3.113,1.709" transform="translate(358.521 6104.185)" fill="#fff"/>
    <path id="Path_65403" data-name="Path 65403" d="M811.359,282.965c-6.8-.293-8.877-2.469-8.932-9.714-.027-3.571,7.308-8.47,12.259-8.272,5.009.2,7.85,3.8,7.694,9.933-.138,5.355-4.927,7.62-11.02,8.053" transform="translate(388.055 6062.302)" fill="#fff"/>
    <path id="Path_65404" data-name="Path 65404" d="M868.1,95.465c-2.987.128-5.089-1.958-4.01-4.644.87-2.166,3.755-3.9,6.136-4.84.674-.268,3.8,2.841,3.894,4.51.185,3.248-2.241,5.058-6.019,4.974" transform="translate(355.001 6158.705)" fill="#fff"/>
    <g id="Group_50421" data-name="Group 50421" transform="translate(827.082 6294.115)">
      <g id="Group_50421-2" data-name="Group 50421" transform="translate(0 0)" clip-path="url(#clip-path)">
        <path id="Path_65375" data-name="Path 65375" d="M40.5,15.314l-.236-4.763-22.873.142H15.865c-.511.03-.515,4.6,0,4.621l10.779,1.542Z" transform="translate(51 34.761)" fill="#fff"/>
        <path id="Path_65376" data-name="Path 65376" d="M56.842,45.131l.58-.043.4-.146c8.048-2.993,6.837-2.968,14.795-6.223q3.2-1.282,6.382-2.581L96.82,29.933,97,29.864c.275-.12,27.584-12.175,41.373-13.481l16.208-1.533c3.015-.06,6.034-.116,9.044-.215,7.756-.249,15.482-.812,23.165-1.774l.455-.06.249-.086c1.765-.61,3.522-1.258,5.248-1.984,1.748-.674,3.47-1.434,5.179-2.216,1.4-.627,2.783-1.318,4.157-2.031l6.15-2.121-.408-1.177c.047-.034.1-.06.146-.094l-.232-.73c-.069,0-.133.009-.2.009L206.7,0,195.585,3.882c-1.576.3-3.148.623-4.7,1.014-1.679.369-3.341.812-4.99,1.284-7.644.5-15.254,1.387-22.834,2.585-2.972.468-5.948.979-8.92,1.486l-16.208,1.533C123.66,13.137,97.249,24.7,95.209,25.6l-17.736,6.18q-3.3.966-6.6,1.937C62.8,36.053,64.035,35.5,56.056,38.092l-7.859.232,1.263,7.369Z" transform="translate(158.786 0.001)" fill="#fff"/>
        <path id="Path_65377" data-name="Path 65377" d="M357.621,33.456a22.455,22.455,0,0,0-2.718-.408c-.661-.077-1.254-.146-1.537-.2-.58-.112-1.155-.21-1.731-.309a26,26,0,0,1-5.463-1.348c-.288-.129-2.392-1.336-4.423-2.5-4.449-2.551-5.089-2.9-5.265-2.933a7.109,7.109,0,0,0-4.419,1.082,1.071,1.071,0,0,0-.477.76c-.064,1.25,6.828,6,9.444,7.653L325.215,53.7C313.04,60.756,301,68.048,289.016,75.375c-12.081,7.365-24.049,14.889-35.834,22.709l-17.659,11.767-4.41,2.955-1.1.739-.55.374-.4.223c-.709.391-1.452.769-2.216,1.142-3.053,1.469-6.2,2.9-9.439,4.118-6.446,2.534-13.085,4.711-19.811,6.652-1,.249-2.006.515-3.006.777-16.319,3.5-38.054,6.1-64.83,4.857-2.723-.129-5.4-.339-8.061-.588a234.231,234.231,0,0,1-28-6.077l-5.007-1.46c-1.666-.494-3.363-.88-5-1.477-3.294-1.121-6.652-2.053-9.907-3.29-6.519-2.448-13.047-4.93-19.368-7.915q-6.526-2.95-12.918-6.253a167.382,167.382,0,0,1-22.722-15.49L15.756,92.63a168.625,168.625,0,0,0,22.155,15.237c4.5,2.972,9.126,5.772,13.906,8.288A181.133,181.133,0,0,0,71.4,125.17c1.653.713,3.367,1.263,5.068,1.864l5.106,1.774c3.418,1.138,6.936,1.967,10.414,2.89a147.668,147.668,0,0,0,21.335,3.35c1.855.232,3.728.344,5.6.417,3.483.374,7.022.674,10.625.842q7.247.335,13.992.326a248.408,248.408,0,0,0,53.411-5.484,157.409,157.409,0,0,0,22.705-5.514c3.444-1.117,6.841-2.418,10.225-3.9.842-.374,1.692-.764,2.551-1.194.189-.094.567-.292.773-.412l.563-.348,1.134-.7,4.526-2.791,18.084-11.2c24.032-15,47.412-31.015,70.344-47.6l.408-.262.064-.077.017-.013.052-.064,17.187-20.051a66.641,66.641,0,0,0,7.322,1.284c1.593.21,3.1.412,4.419.666a6.168,6.168,0,0,0,1.121.129,1.42,1.42,0,0,0,.91-.249,1.475,1.475,0,0,0,.429-1.19c.039-.687-.73-3.732-2.173-4.209" transform="translate(51.908 84.67)" fill="#fff"/>
        <path id="Path_65378" data-name="Path 65378" d="M22.975,42.884c.073.6,1,2.388,1.95,2.388,2.89-.009,7.855-.365,8.9-.49A17.58,17.58,0,0,0,38.877,42.8c.988-.558,1.4-1.275,1.336-1.881s-1.22-3.749-1.988-3.659c-.988.116-2.933,1.567-4.634,1.765-.932.112-2.693.262-4.252.275-.03-1.22.064-3.732.236-5.587.137-1.688-.228-5.261-.137-8.276.077-2.177.679-6.085.807-8.271a47.661,47.661,0,0,0-.155-8.439c-.069-.6-.232-1.529-.528-1.662C28.918,6.8,25.319,5.5,24.607,5.586c-.936.112-.464,2.225-.4,4.166.12,2.431.107,5.66.009,8.121-.094,2.512-.618,3.745-.713,6.257-.082,2.624.266,6.532.189,9.16-.129,3.187-.88,8.168-.713,9.594" transform="translate(75.61 18.391)" fill="#fff"/>
        <path id="Path_65379" data-name="Path 65379" d="M28.428,20.515c.223,5.02,1.778,12.6,1.748,14.8s-.94,7.49-.764,8.409c.382,2.01,2.212,4.531,2.7,4.436,3.148-.6,5.3-1.4,8.447-2,1.9-.356,3.917-.12,5.815-.485.7-.133,2.014-4.209,1.868-4.969-.176-.919-5.171-.872-7.563-.417-1.735.331-3.44.825-5.166,1.211a35.222,35.222,0,0,0,.666-7.442,51.314,51.314,0,0,0-.717-5.725c4.054-.88,5.849-2.113,9.714-2.847a2.888,2.888,0,0,0,1.787-.958,12.34,12.34,0,0,0,.283-4.441c-.133-.709-1.241-.61-2.057-.451-4.788.906-5.974,2.139-10.539,3.066-.146-1.185-.262-2.328-.313-3.367-.107-1.722.146-3.964.043-5.69,1.842-.348,3.741-.429,5.587-.777,1.138-.219,6.111-1.275,6.717-1.954.545-.666.837-2.972.52-4.655-.086-.434-.262-1.078-.859-.962-2.28.434-4.522,1.366-6.8,1.8-3.307.627-6.79.67-10.1,1.3-.919.172-1.129,4.995-1.087,5.828.03,1.907,0,4.389.073,6.287" transform="translate(93.399 17.402)" fill="#fff"/>
        <path id="Path_65380" data-name="Path 65380" d="M34.947,13.084a61.383,61.383,0,0,0,6.223.125c.18,3.333,1.009,6.639,1.1,9.959.125,3.912-.206,10.161.279,12.712a23.593,23.593,0,0,1,.408,4.814,27.889,27.889,0,0,0,.013,3.6c.236,1.245,4.209,1.447,5.188,1.263.49-.094.863-1.963.941-4.226a24.48,24.48,0,0,0-.3-4.836c-.971-5.106-.313-10.234-.507-15.374a62.087,62.087,0,0,0-.842-7.095c-.056-.425-.082-.992-.112-1.542a26.719,26.719,0,0,1,3.852-1.25c1.142-.215,2.332-.163,3.47-.382,1.091-.206.794-4.419.661-5.128-.167-.867-2.912-.515-4.325-.245-2.061.391-3.144,1.215-5.2,1.606A26.575,26.575,0,0,1,41.6,7.26a44.4,44.4,0,0,0-7.146.575c-.648.12-.614,3.264-.5,3.861.125.653.3,1.293,1,1.387" transform="translate(111.642 17.043)" fill="#fff"/>
        <path id="Path_65381" data-name="Path 65381" d="M40.52,17.695c.193,1.031,2.607,2.766,3.637,2.568,1.413-.266,2.259-2.9,2.6-4.093A26.457,26.457,0,0,0,46.936,5c-.258-1.357-.867-1.3-2.006-1.082-.816.155-4.166,1.469-4.217,2.379a12.432,12.432,0,0,0,.262,1.971c.352,1.847.966,3.586.636,5.394-.125.528-1.134,3.814-1.091,4.033" transform="translate(133.49 12.522)" fill="#fff"/>
        <path id="Path_65382" data-name="Path 65382" d="M49.342,24.824c1.963.863,4.054,2.379,4.488,4.66a3.964,3.964,0,0,1-.236,1.731c-.429.983-1.4,1.224-2.809,1.49-1.52.288-2.156-.094-2.332-1.018-.1-.545-.172-2.388-.3-3.092-.1-.541-3.491-.91-4.526-.713-.975.185-1.172,3.878-.872,5.171,1.112,4.964,4.96,5.974,9.414,5.128,3.041-.58,5.8-2.9,6.48-4.38s1.559-3.616,1.211-5.463a10.606,10.606,0,0,0-5.806-7.447c-2.079-1.177-5.372-1.34-5.806-3.616a4.508,4.508,0,0,1,.88-2.757,3.966,3.966,0,0,1,2.74-2.152c1.847-.352,2.654.339,2.963,1.065s.279,1.469.713,1.383c1.353-.258,4.784-1.752,4.556-2.946a6.076,6.076,0,0,0-1.456-2.929c-1.5-1.683-4.191-2.8-7.666-2.143a9.289,9.289,0,0,0-6.06,3.629c-1.752,2.3-3.229,4.887-2.645,7.984.859,4.5,5.11,5.553,7.073,6.416" transform="translate(138.827 21.76)" fill="#fff"/>
        <path id="Path_65383" data-name="Path 65383" d="M36.3,49.028c.288,3.015-.21,6.437-.073,9.117.163,3.114.206,6.923.79,9.349.185.76,6.214,3.56,7.185,3.324,2.079-.5,12.707-3.29,15.366-9.285C61.133,58,61.61,48.126,61.279,44.317a76.836,76.836,0,0,0-1.7-12.5c-2.147-8.872-7.326-13.931-16.706-13.575a43.426,43.426,0,0,0-8.3,1.495c-.833.2-1.469,2.113-1.409,2.98l.739,9.431c.507,6.042,2.1,13.871,2.392,16.882m4.939-22.98c6.446-1.555,9.693,3.38,11,8.787.85,3.539.79,6.635,1.026,10.023.361,4.243.412,9-.919,13.21-.7,2.293-4.93,4.2-7.009,4.7-.485.12-1.087-.541-1.168-.889s-.047-2.925-.189-4.724c-.15-2.753.236-5.707.064-8.233s-2.19-11.5-2.7-17.247a37.7,37.7,0,0,1-.112-5.626" transform="translate(109.257 60.037)" fill="#fff"/>
        <path id="Path_65384" data-name="Path 65384" d="M72.373,62.588c-.421-1.731-2.439-4.621-3.272-4.419-.76.185-1.941.764-2.5.9-.485.116-2.993-8.447-4.6-11.14-.88-1.447-1.516-2.517-2.031-3.324l1.336-.472c5.531-2,8.117-11.642,5.875-20.931-2.31-9.568-13.42-6.665-20.287-5.007-1.593.387-4.179,1.525-4.934,2.955-1.031,1.791.867,25.763,1.4,27.979.232.971.382,1.89.636,2.929.365,1.525.3,8.877.412,13.253a53.831,53.831,0,0,0,.129,5.4c.249,1.039,1.739.825,2.92.541a10.391,10.391,0,0,0,3.749-1.49c1.494-1.1,1.035-17.273.5-19.493-.185-.76-.279-1.469-.434-2.1-.034-.146-.069-.313-.1-.507l1.374-.464a39.011,39.011,0,0,1,3.728,5.269c.923,1.683,4.582,15.619,7.631,14.881,4.853-1.172,8.679-3.856,8.464-4.758M57.295,37.839a54.59,54.59,0,0,1-6.991,2.2c-.279-3.174-.537-6.622-.721-9.216h0c-.047-1.091-.249-3.461-.155-4.587.077-1.194,3.281-1.894,4.114-2.1,2.568-.618,5.437-.872,6.21,2.315,1.022,4.23.369,10.036-2.461,11.38" transform="translate(137.256 54.185)" fill="#fff"/>
        <path id="Path_65385" data-name="Path 65385" d="M51.094,37.493c.382,1.593.975,10.109,1.387,14.85.348,4.17,1.336,8.263,1.593,12.381a29.343,29.343,0,0,0,0,3.01c.266,1.108,4.166.241,4.926.052,3.882-.932,2.929-2.757,2.821-4.127-.425-5.4-1.31-9.663-1.546-12.463-.636-6.888-.945-13.347-1.25-14.593-.185-.764-.3-1.542-.468-2.233-.8-3.328-.3-15.555-.842-17.771-.266-1.112-1.237-1.168-2.134-.953-2.083.5-4.509,1.091-5.093,2.624-.687,1.7-.644,13.73-.094,16.014.271,1.112.451,2.164.7,3.208" transform="translate(164.637 51.22)" fill="#fff"/>
        <path id="Path_65386" data-name="Path 65386" d="M64.828,55.412c-.236-2.512-1.155-6.91-1.4-9.422-.455-5.244-.807-11.544-1.49-16.8,1.181,1.254,4.337,9.152,5.776,11.149s4.9,12.39,7.082,16.56,4.466,7.576,5.729,7.932a9.473,9.473,0,0,0,4.552-.292c1.941-.468,2.809-.825,2.375-2.628-.859-3.534.391-10.217-.034-15.619-.455-5.832-1.2-11.668-1.817-17.535a44.09,44.09,0,0,1-.734-5.179c-.06-2.993.253-7.764-.064-9.079-.468-1.945-.833-2.22-2.358-1.855s-5.407,1.306-5.231,3.247c.236,3.1.1,6.21.133,9.358a47.954,47.954,0,0,0,.8,5.454c.85,6.545,2.306,14.408,2.117,20.914C78.394,48.1,75.56,37.268,73.657,35.159c-1.494-1.619-6.012-11.827-9.169-15.469-1.009-1.151-6.652-.52-8.108-.167s-2.186.966-2.027,2.839c.5,8.46,1.022,16.993,1.8,25.389.219,2.439.928,4.763,1.151,7.206.318,3.444.653,6.957,1.056,10.453.116,1.074.064,2.993.283,3.9.249,1.039,5.076.975,5.63.842,1.456-.352,1.787-.507,1.714-2.323-.172-4.363-.786-7.807-1.164-12.411" transform="translate(178.998 41.185)" fill="#fff"/>
        <path id="Path_65387" data-name="Path 65387" d="M65.764,44.783c.125,2.023-.137,3.994-.013,6.021.275,4.776,1.516,13.867,1.683,14.558.133.554.915.438,1.4.322.417-.1,6-1.3,6-3.427-.039-4.1-1.108-8.83-1.37-13.244-.137-2.091.176-4.149.034-6.244a7.978,7.978,0,0,1,.485-3.448,21.161,21.161,0,0,1,3.56,3.792c1.074,1.722,4.166,8.752,5.514,11.286,1.108,2.156,4.651,6.8,6.871,6.266A14.281,14.281,0,0,0,95.147,58.3c.906-.8.88-3.951.46-5.686-.1-.417-.339-.5-.618-.438-.623.15-1.718.782-2.482.966-1.731.421-1.89-1.155-3.736-4.23-1.98-3.341-3.8-8.473-5.617-11.411-1.172-1.881-3.161-3.5-4.818-5.093,2.1-3.487,4.252-7.829,4.986-9.109.876-1.529,3.753-4.2,4.531-6.45.606-1.756,3.083-4.853,2.783-6.1-.386-1.593-5.458-1.318-6.7-1.018s-2.551,3.109-2.886,4.144c-.691,2-2.925,4.3-3.852,5.626a94.055,94.055,0,0,0-4.827,8.868c-.112-1.366,0-2.714-.142-3.925A69.933,69.933,0,0,0,70.54,14.429c-.369-1.525-4.4-.915-5.441-.666-.7.167-2.014.782-2.006,1.731.043,3.221,1.233,8.142,1.529,12.1.438,5.768.721,11.492,1.142,17.187" transform="translate(207.861 31.3)" fill="#fff"/>
        <path id="Path_65388" data-name="Path 65388" d="M66.544,47.889a58.6,58.6,0,0,0,3.9-7.223c.4-1.069.46-2.263-.743-2.714h0c-.8-.3-5.617-2.083-6.266-.953-1.434,2.435-2.959,5.518-4.406,8.181a54.438,54.438,0,0,1-3.023,4.539,131.541,131.541,0,0,0-14.524-3.741l.447-.829c.794-1.533,1.417-3.2,2.28-4.711,1.177-2.147,4.724-6.991,5.046-7.863.3-.8-1.417-2.731-2.688-3.2-1.473-.545-3.912-1.147-4.26-.21-.245.67-3.8,5.742-5.274,8.469-.906,1.636-1.529,3.307-2.375,4.973-2.388,4.591-5.364,12-6.446,13.884s-4.745,7.674-7.284,11.445c-.193.309-2,2.912-2.07,3.114-.6,1.606,2.461,4.033,3.732,4.5,1.868.691,2.1.7,3.1-.983,2.59-4.514,7.764-11.492,8.894-13.511,1.031-1.907,2.229-4.793,3.547-7.85a80.793,80.793,0,0,1,13.82,3.272c-2.568,4.934-4.814,10.049-7.576,14.679-1.842,3.118-5.768,7.138-6.214,8.34s2.873,2.512,3.809,2.86c.266.1,2.4.893,3.079.3a55.162,55.162,0,0,0,6.575-8.284c3.453-6.025,6.257-12.36,9.641-18.406,1.585-2.834,3.629-5.274,5.282-8.082" transform="translate(61.875 94.462)" fill="#fff"/>
        <path id="Path_65389" data-name="Path 65389" d="M60.767,32.926c-1.2-.21-6.055-1-7.232-.481a22,22,0,0,0-5.884,6.274c-2.826,4.5-5.458,9.173-5.634,10.157-.4,2.242-5.317,9.993-7.584,14.228-1.791,3.59-4.917,7.743-5.579,9.439a35.31,35.31,0,0,0-1.031,4.6c-.159.915.344,1.366,1.464,1.563,1.683.3,5.536.618,5.965-.176.112-.2.687-1.834,1.409-3.444.459-1.061,2.731-4.745,4.024-7.06,2.972.4,6.072.374,9.014.893a19.378,19.378,0,0,1,3.169.932c-.266,2.615-.593,5.368-1,7.631-.266,1.546-1.241,2.968-1.417,3.951-.15.842,1.615,1.516,2.246,1.628,1.615.283,5.05.094,5.527-.545a17.744,17.744,0,0,0,1.662-4.484c1.28-7.232,1.1-12.768,1.731-16.349.421-2.388,1.108-5.454,1.567-8.048C63.55,51.59,64.847,35.241,64,34.3a5.652,5.652,0,0,0-3.234-1.37M55.932,51.259c-.408,2.319-1.825,7.863-2.173,9.83-.043.258-.09.631-.146,1.1l-1.864-.374v0c-2.6-.46-4.441-.275-7.039-.734l-.215-.039c1.525-2.542,3.088-5.153,3.242-6.017a53.835,53.835,0,0,1,5.153-10.745c1.49-2.272,3.367-3.9,3.65-3.848.49.09-.348,9.353-.61,10.826" transform="translate(91.572 106.325)" fill="#fff"/>
        <path id="Path_65390" data-name="Path 65390" d="M71.048,42.483c.1-9.843-11.385-9.744-18.441-9.813-1.645-.017-4.428.455-5.51,1.653C45.655,35.81,41.635,59.515,41.614,61.8c-.013,1-.095,1.924-.1,2.993-.013,1.567-1.868,8.679-2.839,12.948-.223,1-1.185,4.415-1.194,5.269-.013,1.069,1.482,1.224,2.7,1.237a10.4,10.4,0,0,0,4-.528c1.718-.7,5.231-16.5,5.252-18.776.009-.782.09-1.494.094-2.139,0-.146.009-.322.021-.52l1.452-.112a39.527,39.527,0,0,1,2.323,6.021c.481,1.855.618,16.263,3.758,16.293,4.99.052,9.358-1.615,9.366-2.542.021-1.782-1.228-5.076-2.087-5.085-.786-.009-2.07.262-2.641.258-.5,0-.837-8.924-1.731-11.926-.5-1.615-.859-2.809-1.16-3.715l1.409-.133c5.858-.584,10.719-9.306,10.818-18.862M57.877,54.259a54.677,54.677,0,0,1-7.314.429c.5-3.144,1.1-6.553,1.55-9.117h0c.223-1.065.606-3.414.971-4.483.369-1.134,3.65-1.031,4.5-1.022,2.637.026,5.484.481,5.454,3.762-.043,4.355-2.1,9.822-5.171,10.431" transform="translate(123.472 107.633)" fill="#fff"/>
        <path id="Path_65391" data-name="Path 65391" d="M43.736,42.96Z" transform="translate(144.089 141.533)" fill="#fff"/>
        <path id="Path_65392" data-name="Path 65392" d="M88.7,57.83c-.232-5.918-1.121-11.849-1.443-17.818a30.241,30.241,0,0,0-.485-3.543c-.137-.7-1.168-5.51-1.726-5.763-.644-.3-7.107.472-8.018.653-2.1.417-3.418,8.387-4.063,10.625-.983,3.47-1.838,7.2-2.568,10.839-.885,4.32-1.7,9.353-2.56,12.364l-.026-.142c-.653-3.285-2.2-6.687-3.023-10.814-.5-2.517-6.674-17.071-8.533-17.646a21.542,21.542,0,0,0-7.219-.086c-2.585.515-2.572,1.31-2.195,3.2a63.219,63.219,0,0,1,.537,8.911c.082,4.78.146,9.134.142,12.768s1.907,15.039,2.07,21.7c.039,2.027-.606,1.722-.365,2.912.262,1.327,4.977.9,6.3.631.563-.112,1.245-1.413,1.486-3.131.309-2.461-.15-5.862-.356-8.366-.485-4.629-1.254-9.2-1.443-13.82-.137-3.607-.666-8.447-.215-12.029,1.409,2.336,2.594,7.193,3.281,9.89.584,2.212,3.753,11.179,5.063,12.665,1.215,1.357,7.442,1.207,9.117.872,1.4-.275,4.32-14.455,5.093-17.522S79.4,45.067,80.045,42.468c.5,4.7.8,9.873.923,14.5.12,5.355.133,13.064.172,16.182a39.05,39.05,0,0,0,.988,6.42c.378,1.89,1.787,1.679,3.4,1.361,1.679-.335,3.934-2.164,3.934-2.895-.013-1.885-.739-4.067-.752-5.957-.013-3.341.206-9.568,0-14.254" transform="translate(153.727 100.931)" fill="#fff"/>
        <path id="Path_65393" data-name="Path 65393" d="M85.581,64.539c-1.185.485-3.1,2.963-5.149,3.8-1.121.459-3.255,1.258-5.188,1.817-.464-1.507-1.215-4.664-1.649-7.03-.412-2.143-2.1-6.459-3.036-10.238-.661-2.74-1.271-7.8-1.864-10.569a62.236,62.236,0,0,0-3.122-10.436c-.3-.726-.82-1.821-1.233-1.881-.889-.1-5.819-.468-6.674-.12-1.121.464.193,2.929.945,5.317.988,2.985,2.1,7,2.826,10.1.756,3.161.528,4.87,1.284,8.026.807,3.294,2.6,8.031,3.406,11.325.949,4,1.744,10.457,2.448,12.175.3.726,2.074,2.62,3.247,2.289,3.6-1.009,9.646-3.178,10.9-3.693A22.535,22.535,0,0,0,88.312,71.2c1.039-1.039,1.306-2.079,1.009-2.8s-2.817-4.243-3.741-3.861" transform="translate(188.551 97.98)" fill="#fff"/>
        <path id="Path_65394" data-name="Path 65394" d="M91.371,72.016c-1.976,1.142-3.844,2.469-5.785,3.672a45.506,45.506,0,0,0-2.349-9.349,65.632,65.632,0,0,0-3.307-6.669c4.565-2.8,6.231-5.063,10.629-7.6a3.714,3.714,0,0,0,1.769-1.928c.163-1-1.009-4.6-1.55-5.531-.46-.8-1.765-.215-2.693.322-5.45,3.144-6.373,5.149-11.539,8.22-.679-1.383-1.306-2.731-1.817-3.968-.855-2.057-1.507-4.9-2.366-6.953,2.1-1.211,4.38-2.117,6.48-3.328,1.3-.747,6.906-4.153,7.352-5.231.382-1.048-.236-3.981-1.344-5.9-.283-.494-.773-1.2-1.456-.807h0c-2.594,1.5-4.93,3.59-7.524,5.085-3.766,2.177-7.988,3.706-11.758,5.879-1.048.61.747,6.571,1.16,7.567.842,2.315,1.855,5.355,2.757,7.631,2.4,6.021,7.52,14.6,8.417,17.29S78.5,79.948,79.1,81c1.323,2.285,4.621,4.578,5.175,4.26,3.586-2.07,5.866-3.964,9.452-6.03,2.16-1.25,4.715-1.821,6.871-3.066.807-.464.666-5.982.167-6.85-.606-1.048-6.674,1.138-9.392,2.706" transform="translate(210.173 88.467)" fill="#fff"/>
        <path id="Path_65395" data-name="Path 65395" d="M88.613,44.795c-2.68.288-7.314.4-9.122-1.9-2.916-3.7-3.294-6.841.567-9.882a6.843,6.843,0,0,1,6-1.37c.73.236,1.671,1.314,2.121.962,1.009-.794,4.17-4.737,3.152-6.025-4.149-5.265-11.127-2.942-15.379.408-7.739,6.09-8.035,13.773-2.207,21.168,3.479,4.423,9.83,4.874,15.087,4.179,2.787-.382,6.141-.391,8.172,2.186,3,3.809,4.737,10.517,1.494,13.077-1.293,1.013-4.453,2.414-5.866.623-1.056-1.344-1.808-4.024-2.693-5.145-.438-.558-2.117.764-2.456,1.031-.837.661-3.367,2.748-3.354,3.917.021,1.069,2.164,4.827,2.916,5.78,3.483,4.423,10.668,3.4,14.752.176,9.8-7.722,5.892-18.8.593-25.522-3.7-4.7-8.426-4.247-13.777-3.663" transform="translate(229.688 77.346)" fill="#fff"/>
        <path id="Path_65396" data-name="Path 65396" d="M108.026,39.194c-4.38-4.084-8.98-2.912-14.18-1.52-2.6.7-7.163,1.516-9.3-.477-3.44-3.208-4.3-6.257-.949-9.856a6.865,6.865,0,0,1,5.72-2.272c.76.125,1.855,1.048,2.242.627.872-.936,3.393-5.312,2.195-6.433-4.9-4.569-11.441-1.211-15.138,2.753-6.708,7.2-5.836,14.838,1.052,21.258,4.118,3.839,10.457,3.311,15.55,1.821,2.7-.8,6.008-1.318,8.409.915,3.547,3.307,6.292,9.667,3.474,12.695-1.117,1.2-4.028,3.066-5.7,1.512-1.25-1.168-2.4-3.7-3.444-4.672-.52-.485-1.98,1.078-2.272,1.391-.73.782-2.912,3.229-2.718,4.385.189,1.052,2.882,4.441,3.766,5.265,4.123,3.839,11.058,1.731,14.61-2.079,8.507-9.13,2.946-19.48-3.315-25.312" transform="translate(243.842 56.218)" fill="#fff"/>
        <path id="Path_65397" data-name="Path 65397" d="M109.761,38.1c-.541-.429-1.194-.85-1.8-1.327a45.75,45.75,0,0,1-7.133-7.241c-4.153-5.171-7.219-8.98-9.8-11.428-3.689-3.522-7.425-6.493-9.177-7.88-.9-.717-1.825.318-2.688,1.4h0c-.721.9-2.439,4.552-1.606,5.609,2.358,2.852,5.574,5.115,8.383,7.644,3.234,2.864,5.587,6.21,8.138,9.315a56.5,56.5,0,0,0,9.1,9.59c.6.481,2.4,1.808,3.191,1.555.842-.318,3.534-3.586,4.157-4.368a2.264,2.264,0,0,0-.764-2.873" transform="translate(254.792 32.912)" fill="#fff"/>
        <path id="Path_65398" data-name="Path 65398" d="M91.5,18.9c-1.688-1.34-3.586-.687-4.831.88-2.444,3.075-2.4,5.372.915,8,2.293,1.821,3.513.533,5-1.336,2.156-2.714,1.933-5.153-1.082-7.55" transform="translate(279.864 59.884)" fill="#fff"/>
        <path id="Path_65399" data-name="Path 65399" d="M66.85,84.689a84.663,84.663,0,0,0-1.842-18.4,109.452,109.452,0,0,0-4.982-17.835,110.263,110.263,0,0,0-6.145-12.733c-2.774-5.106-6.678-8.5-10.075-11.892-4.149-4.144-8.16-7.528-12.609-9.25a24.947,24.947,0,0,0-15.5-.94A19.638,19.638,0,0,0,3.231,22.723c-2.3,4-3.393,9.233-3.212,15.4A30.479,30.479,0,0,0,4.386,53.206a44.278,44.278,0,0,0,10.3,12.08c3.9,3.126,8.881,5.308,13.609,8.293,4.3,2.723,8.653,5.81,13.219,8.851C45.8,85.286,50.527,87.9,54.7,91.4c3.947,3.307,10.152,17.59,11.226,12.222,2.044-10.238.687-10.552.923-18.93" transform="translate(-0.002 42.258)" fill="#fff"/>
        <path id="Path_65400" data-name="Path 65400" d="M42.035,56.188A60.654,60.654,0,0,0,53.33,45.671c3.285-3.912,5.5-8.164,5.342-14-.193-7.241-2.761-14.6-7.73-14.327-4.419.245-10.844-2.091-16.444,1.6-4.058,2.671-7.855,7.2-10.741,13.3a68.163,68.163,0,0,0-4.715,14.211c-1.237,5.433-1.138,10.509-1.224,14.859-.167,8.937-2.371,18.8.764,14.8a65.063,65.063,0,0,1,10.8-10.99c4.174-3.44,8.675-6.1,12.656-8.941" transform="translate(55.712 55.487)" fill="#fff"/>
      </g>
    </g>
  </g>
</svg>
