<?xml version="1.0" encoding="iso-8859-1"?>
<!-- Generator: Adobe Illustrator 19.0.0, SVG Export Plug-In . SVG Version: 6.00 Build 0)  -->
<!-- License: CC0. Made by SVG Repo: https://www.svgrepo.com/svg/133001/rupee -->
<svg version="1.1" id="Layer_1" xmlns="http://www.w3.org/2000/svg" xmlns:xlink="http://www.w3.org/1999/xlink" x="0px" y="0px"
	 viewBox="0 0 445 445" style="enable-background:new 0 0 445 445;" xml:space="preserve">
<g>
	<path style="fill:white;" d="M379.253,263.02l-44.115-13.936c-25.667-8.107-37.113-23.741-37.113-50.691
		c0-29.305,23.842-53.146,53.146-53.146s53.146,23.841,53.146,53.146h40c0-51.361-41.785-93.146-93.146-93.146
		s-93.146,41.785-93.146,93.146c0,21.153,5.148,39.366,15.302,54.132c11.064,16.091,27.807,27.766,49.763,34.702l44.115,13.936
		c25.667,8.107,37.113,23.741,37.113,50.691c0,29.305-23.842,53.146-53.146,53.146s-53.146-23.841-53.146-53.146h-40
		c0,51.361,41.785,93.146,93.146,93.146s93.146-41.785,93.146-93.146c0-21.153-5.148-39.366-15.302-54.132
		C417.951,281.631,401.209,269.956,379.253,263.02z"/>
	<path style="fill:white;" d="M171.826,225.784c28.412-23.109,46.721-59.151,46.721-99.577C218.547,56.616,164.324,0,97.654,0
		L0.683,0.102V445h40V252.387h76.993c44.593,0,80.871,38.672,80.871,86.207V445h40V338.594
		C238.547,289.319,211.358,246.556,171.826,225.784z M40.683,212.387V40.06L97.676,40c44.593,0,80.871,38.672,80.871,86.207
		c0,47.52-36.278,86.18-80.871,86.18H40.683z"/>
</g>
</svg>
